<svg width="17" height="19" viewBox="0 0 17 19" fill="none" xmlns="http://www.w3.org/2000/svg">
<path d="M10.0492 18.1273C10.0492 18.3587 9.9616 18.5807 9.80569 18.7444C9.64979 18.9081 9.43833 19 9.21785 19H4.78406C4.56358 19 4.35213 18.9081 4.19622 18.7444C4.04032 18.5807 3.95273 18.3587 3.95273 18.1273C3.95273 17.8958 4.04032 17.6738 4.19622 17.5102C4.35213 17.3465 4.56358 17.2545 4.78406 17.2545H9.21785C9.43833 17.2545 9.64979 17.3465 9.80569 17.5102C9.9616 17.6738 10.0492 17.8958 10.0492 18.1273ZM13.6738 15.3631C13.5537 15.5853 13.3793 15.7699 13.1686 15.8978C12.9579 16.0258 12.7185 16.0924 12.4751 16.0909H1.52682C1.2834 16.0924 1.044 16.0258 0.83328 15.8978C0.622564 15.7699 0.44816 15.5852 0.32804 15.363C0.206742 15.1408 0.143207 14.889 0.143803 14.6329C0.144399 14.3768 0.209104 14.1253 0.331434 13.9037C0.725625 13.1917 1.19568 11.8324 1.19568 9.4V9.10909C1.19384 7.49085 1.80441 5.93812 2.89307 4.79245C3.98174 3.64678 5.45933 3.00202 7.00082 3L7.04516 3.00015C10.2221 3.02495 12.8068 5.79491 12.8068 9.17484V9.4C12.8068 11.8326 13.2765 13.192 13.6705 13.904C13.7928 14.1256 13.8575 14.377 13.8581 14.6331C13.8587 14.8891 13.7951 15.1409 13.6738 15.3631ZM12.0144 14.3455C11.3017 12.7782 11.1441 10.822 11.1441 9.4V9.17484C11.1441 6.75025 9.2998 4.7632 7.03282 4.7456C7.02227 4.74551 7.01172 4.74547 7.00116 4.74545C6.45621 4.74641 5.91677 4.86003 5.41365 5.07984C4.91053 5.29965 4.45357 5.62134 4.06888 6.02654C3.68418 6.43175 3.37928 6.91252 3.17157 7.44143C2.96387 7.97033 2.85744 8.537 2.85835 9.10909V9.4C2.85835 10.822 2.70067 12.7783 1.98752 14.3455H12.0144Z" fill="#4E4E4E"/>
<circle cx="12.0002" cy="5" r="5" fill="#563BFF"/>
<path d="M10.4163 4.90234L10.6624 2.73438H13.053V3.44043H11.3567L11.2512 4.35742C11.4524 4.25 11.6663 4.19629 11.8928 4.19629C12.2991 4.19629 12.6174 4.32227 12.8479 4.57422C13.0784 4.82617 13.1936 5.17871 13.1936 5.63184C13.1936 5.90723 13.135 6.1543 13.0178 6.37305C12.9026 6.58984 12.7366 6.75879 12.5198 6.87988C12.303 6.99902 12.0471 7.05859 11.7522 7.05859C11.4944 7.05859 11.2551 7.00684 11.0344 6.90332C10.8137 6.79785 10.6389 6.65039 10.51 6.46094C10.3831 6.27148 10.3157 6.05566 10.3079 5.81348H11.1458C11.1633 5.99121 11.2249 6.12988 11.3303 6.22949C11.4377 6.32715 11.5774 6.37598 11.7493 6.37598C11.9407 6.37598 12.0881 6.30762 12.1917 6.1709C12.2952 6.03223 12.3469 5.83691 12.3469 5.58496C12.3469 5.34277 12.2874 5.15723 12.1682 5.02832C12.0491 4.89941 11.8801 4.83496 11.6614 4.83496C11.4602 4.83496 11.2971 4.8877 11.1721 4.99316L11.0901 5.06934L10.4163 4.90234Z" fill="white"/>
</svg>
